#define landscape_outline_width 22
#define landscape_outline_height 12
static char landscape_outline_bits[] = {
  0x00, 0x00, 0x00, 0x00, 0x30, 0x00, 0x00, 0x78, 0x00, 0x00, 0xFC, 0x00, 
  0x00, 0xCC, 0x00, 0x20, 0x86, 0x01, 0x70, 0x86, 0x03, 0xF8, 0x00, 0x07, 
  0xF8, 0x00, 0x06, 0x9C, 0x01, 0x0C, 0xFE, 0xFF, 0x1F, 0xFF, 0xFF, 0x3F, 
  };
