#define tor_width 32
#define tor_height 32
static char tor_bits[] = {
  0x00, 0x00, 0x00, 0x00, 0x00, 0x00, 0x10, 0x00, 0x00, 0x00, 0x48, 0x00, 
  0x00, 0x00, 0x34, 0x00, 0x00, 0x00, 0x1D, 0x00, 0x00, 0x00, 0x0F, 0x00, 
  0x00, 0x00, 0x07, 0x00, 0x00, 0x80, 0x07, 0x00, 0x00, 0xA0, 0x03, 0x00, 
  0x00, 0x80, 0x01, 0x00, 0x00, 0x00, 0x03, 0x00, 0x00, 0x40, 0x03, 0x00, 
  0x00, 0x40, 0x06, 0x00, 0x00, 0x30, 0x07, 0x00, 0x00, 0x08, 0x1E, 0x00, 
  0x00, 0x04, 0x3C, 0x00, 0x00, 0x03, 0xFC, 0x00, 0x80, 0x01, 0xFA, 0x01, 
  0x80, 0x00, 0xFA, 0x01, 0x40, 0x04, 0xF8, 0x03, 0x40, 0x42, 0xF8, 0x03, 
  0x20, 0x00, 0xF8, 0x03, 0x00, 0x01, 0xFA, 0x07, 0x40, 0x00, 0xF8, 0x03, 
  0x40, 0x00, 0xF8, 0x03, 0x40, 0x01, 0xFD, 0x03, 0x40, 0x20, 0xFA, 0x03, 
  0x80, 0x04, 0xFC, 0x01, 0x00, 0x0D, 0xFD, 0x00, 0x00, 0x42, 0xFF, 0x00, 
  0x00, 0x7C, 0x3F, 0x00, 0x00, 0xE0, 0x0F, 0x00, };
